<?xml version="1.0" encoding="utf-8"?>
<!-- Generator: Adobe Illustrator 27.2.0, SVG Export Plug-In . SVG Version: 6.00 Build 0)  -->
<svg version="1.1" id="Layer_1" xmlns="http://www.w3.org/2000/svg" xmlns:xlink="http://www.w3.org/1999/xlink" x="0px" y="0px"
	 viewBox="0 0 364.94 126.26" enable-background="new 0 0 364.94 126.26" xml:space="preserve">
<g>
	<path fill="#547384" d="M303.31,116.93c1.34,0.12,2.59,0.26,3.73,0.83c0.59,0.29,1.1,0.69,1.02,1.42c-0.08,0.81-0.78,0.89-1.4,0.99
		c-1.57,0.23-3.08-0.02-4.52-0.66c-0.64-0.29-1.35-0.68-1.21-1.55c0.14-0.85,0.96-0.81,1.59-0.95
		C302.82,116.94,303.11,116.95,303.31,116.93z M305.53,119.73c0.25-0.01,0.55,0.01,0.83-0.05c0.39-0.08,0.93-0.07,1.05-0.52
		c0.13-0.5-0.39-0.72-0.73-0.88c-1.26-0.58-2.58-0.92-3.99-0.74c-0.41,0.05-0.89,0.11-0.97,0.62c-0.09,0.53,0.36,0.7,0.74,0.86
		C303.44,119.43,304.45,119.66,305.53,119.73z"/>
</g>
<g>
	<path fill="#547384" d="M304.41,114.62c1.67,0.03,3.24,0.44,4.69,1.24c0.65,0.36,1.17,0.87,1.03,1.7c-0.14,0.8-0.83,1.04-1.49,1.14
		c-2.21,0.32-4.34-0.03-6.32-1.09c-0.63-0.34-1.25-0.82-1.11-1.66c0.15-0.91,0.96-1.09,1.7-1.22
		C303.4,114.64,303.91,114.65,304.41,114.62z M304.55,115.32c-0.77,0.02-1.32-0.01-1.83,0.24c-0.73,0.36-0.84,0.91-0.15,1.31
		c1.86,1.07,3.85,1.61,6.01,1.09c0.32-0.08,0.68-0.2,0.77-0.57c0.11-0.47-0.31-0.64-0.61-0.84
		C307.4,115.65,305.86,115.47,304.55,115.32z"/>
</g>
<g>
	<path fill="#547384" d="M308.74,116.87c-1.88,0.05-3.64-0.5-5.37-1.11c-0.76-0.26-1.42-0.71-1.96-1.31
		c-0.88-0.99-0.68-1.95,0.52-2.51c1.29-0.61,2.67-0.64,4.05-0.49c1.88,0.2,3.72,0.6,5.38,1.54c0.83,0.47,1.58,1.12,1.42,2.16
		c-0.17,1.06-1.12,1.4-2.05,1.57C310.08,116.84,309.4,116.83,308.74,116.87z M308.6,115.94c0.8,0.02,1.6-0.02,2.36-0.29
		c0.36-0.13,0.75-0.27,0.83-0.69c0.08-0.45-0.28-0.67-0.59-0.88c-2.46-1.64-5.18-2.03-8.05-1.61c-0.49,0.07-1.03,0.24-1.15,0.83
		c-0.12,0.62,0.41,0.87,0.83,1.12C304.61,115.5,306.59,115.79,308.6,115.94z"/>
</g>
<g>
	<path fill="#547384" d="M305.74,107.27c3.23,0,5.83,0.54,8.24,1.82c0.48,0.26,0.94,0.54,1.31,0.95c1.18,1.27,0.84,2.76-0.76,3.4
		c-1.69,0.67-3.48,0.56-5.2,0.38c-2.53-0.27-5.06-0.71-7.12-2.44c-0.68-0.57-1.18-1.2-1.03-2.14c0.16-0.98,0.92-1.31,1.74-1.59
		C304,107.26,305.13,107.33,305.74,107.27z M310.91,112.9c0.93,0.05,1.84-0.05,2.73-0.33c0.52-0.16,1.11-0.31,1.21-0.95
		c0.1-0.64-0.42-0.97-0.88-1.25c-3-1.84-6.26-2.5-9.73-2.04c-0.74,0.1-1.61,0.26-1.81,1.11c-0.21,0.9,0.62,1.3,1.26,1.66
		C305.93,112.36,308.39,112.76,310.91,112.9z"/>
</g>
<g>
	<path fill="#547384" d="M324.82,63.08c4.33,0.34,8.63,0.38,12.65,2.07c1.32,0.55,2.55,1.25,3.57,2.29
		c2.24,2.27,2.28,4.86,0.13,7.24c-1.85,2.05-4.23,3.25-6.69,4.35c-1.32,0.59-1.34,0.65-0.37,1.69c1.78,1.93,1.74,4.04-0.12,5.88
		c-1.62,1.6-3.64,2.5-5.77,3.19c-1.35,0.44-1.4,0.55-0.6,1.66c1.15,1.6,1.03,2.83-0.37,4.23c-1.2,1.2-2.72,1.77-4.28,2.27
		c-0.78,0.25-1.17,0.53-0.58,1.41c1.05,1.56,0.74,2.77-0.87,3.8c-0.35,0.22-0.72,0.48-1.11,0.57c-1.14,0.26-1.82,0.64-1.59,2.1
		c0.18,1.12-0.87,1.73-1.82,2.14c-1.36,0.59-2.81,0.86-4.28,0.95c-2.69,0.17-5.36-0.02-7.9-1.04c-0.58-0.23-1.15-0.54-1.63-0.92
		c-1.38-1.08-1.38-2.42,0.03-3.42c0.79-0.55,0.94-0.84,0.09-1.51c-1.84-1.45-1.88-2.48-0.3-4.36c0.39-0.47,0.34-0.81-0.12-1.15
		c-0.2-0.15-0.41-0.29-0.61-0.45c-2.15-1.81-2.15-3.8,0.08-5.53c0.9-0.7,0.81-1.14-0.13-1.62c-0.37-0.19-0.71-0.44-1.03-0.71
		c-2.36-2.03-2.45-4.26-0.27-6.47c0.95-0.97,0.93-1.18-0.27-1.8c-0.98-0.5-1.86-1.11-2.63-1.9c-2.01-2.09-2.08-4.82-0.13-6.99
		c1.51-1.69,3.41-2.84,5.45-3.74c5.54-2.46,11.38-3.65,17.41-3.96C322.14,63.27,323.52,63.16,324.82,63.08z M324.01,65.65
		c-3.64,0.04-7.14,0.4-10.59,1.1c-3.57,0.72-7.08,1.68-10.29,3.5c-1.21,0.68-2.35,1.45-3.25,2.53c-0.94,1.14-1.03,2.2-0.31,3.21
		c1.3,1.8,5.29,3.18,7.45,2.56c6.46-1.83,13.03-2.24,19.62-1c2.1,0.4,3.96,0.23,5.85-0.57c0.92-0.39,1.87-0.74,2.76-1.19
		c1.5-0.75,2.98-1.55,4.09-2.85c1.25-1.47,1.08-2.94-0.46-4.1c-0.74-0.56-1.56-0.95-2.43-1.28
		C332.41,66.02,328.16,65.76,324.01,65.65z M323.47,88.8c2.16-0.22,4.17-0.91,6.13-1.76c1.15-0.49,2.27-1.07,3.12-2.05
		c0.86-0.99,0.87-1.99-0.07-2.88c-1.22-1.16-2.62-1.76-4.35-1.25c-0.76,0.23-1.54,0.39-2.32,0.53c-6.55,1.16-13.11,1.54-19.7,0.33
		c-1.7-0.31-3.96,0.96-4.64,2.52c-0.3,0.69-0.24,1.34,0.3,1.86c1.67,1.6,3.63,2.62,5.99,2.22c3.7-0.64,7.39-0.81,11.11-0.31
		C320.52,88.22,321.99,88.54,323.47,88.8z M319.23,97.1c2.05-0.25,3.95-0.75,5.71-1.67c0.89-0.47,1.92-1.01,1.78-2.19
		c-0.15-1.21-1.23-1.71-2.28-2.09c-0.48-0.17-0.98-0.14-1.49-0.07c-5.34,0.68-10.67,0.84-15.98-0.32c-1.75-0.38-3.09,0.5-4.21,1.72
		c-0.57,0.62-0.49,1.33,0.1,1.91c1.24,1.22,2.68,1.97,4.5,1.76c2.89-0.32,5.76-0.34,8.62,0.29
		C317.08,96.69,318.19,96.89,319.23,97.1z M317.25,103.14c1.27-0.14,2.41-0.39,3.44-0.98c1.33-0.76,1.35-1.74,0.11-2.61
		c-0.86-0.6-1.78-0.82-2.84-0.72c-3.81,0.36-7.59,0.24-11.31-0.72c-0.91-0.24-1.73-0.12-2.5,0.41c-1.14,0.78-1.17,1.68-0.07,2.5
		c1.22,0.91,2.58,1.3,4.12,1.13c2.65-0.28,5.25,0.01,7.8,0.76C316.43,103.01,316.88,103.07,317.25,103.14z M311.01,107.89
		c0.55,0,1.22,0.03,1.89-0.01c1.43-0.08,2.82-0.4,4.09-1.09c0.48-0.26,0.96-0.62,0.82-1.27c-0.14-0.63-0.71-0.77-1.26-0.87
		c-0.2-0.04-0.42-0.03-0.62-0.02c-3.03,0.2-6.01-0.15-8.95-0.85c-0.76-0.18-1.48-0.22-2.19,0.15c-0.59,0.31-1.31,0.54-1.35,1.33
		c-0.03,0.8,0.63,1.13,1.24,1.41C306.65,107.59,308.72,108,311.01,107.89z M321.32,79.18c-2.71-0.36-5.4-0.44-8.04,0.46
		C315.99,80,318.68,80.11,321.32,79.18z"/>
</g>
<g>
	<path fill="#547384" d="M317.24,69.42c-4.88,0.19-9.71-0.07-14.44-1.34c-2.64-0.71-5.2-1.65-7.2-3.64c-2.62-2.6-2.67-6.26-0.19-9
		c2.54-2.81,5.83-4.45,9.25-5.86c6.77-2.78,13.86-4.03,21.12-4.59c4.84-0.37,9.61-0.05,14.37,0.7c3.53,0.55,6.82,1.76,9.46,4.27
		c2.57,2.44,2.64,5.98,0.32,8.66c-2.83,3.27-6.52,5.2-10.48,6.66C332.3,67.92,324.86,69.19,317.24,69.42z M329.63,48.01
		c-2.06-0.05-3.86,0.04-5.65,0.22c-7.21,0.71-14.22,2.17-20.77,5.41c-1.92,0.95-3.68,2.16-5.13,3.77c-1.9,2.12-1.67,3.98,0.68,5.56
		c1.41,0.94,2.98,1.51,4.6,1.95c5.48,1.48,11.07,1.66,16.69,1.25c7.57-0.56,14.91-2.11,21.8-5.41c2-0.96,3.87-2.15,5.38-3.85
		c1.72-1.95,1.52-3.94-0.6-5.45c-0.96-0.69-2.05-1.13-3.16-1.51C338.9,48.38,334.17,47.93,329.63,48.01z"/>
</g>
<g>
	<path fill="#547384" d="M313.9,54.3c-6.47-0.03-12.89-0.5-18.95-3.05c-2.17-0.91-4.24-1.99-5.75-3.91
		c-2.55-3.24-2.38-7.2,0.4-10.29c3.11-3.45,7.08-5.58,11.29-7.3c7.98-3.26,16.31-4.89,24.88-5.59c7.1-0.58,14.14-0.35,21.11,1.11
		c3.81,0.8,7.37,2.27,10.16,5.14c2.74,2.82,2.95,6.79,0.53,9.94c-1.84,2.4-4.17,4.24-6.79,5.68c-6.49,3.58-13.51,5.55-20.77,6.83
		C324.67,53.82,319.31,54.36,313.9,54.3z M314.42,50.5c1.24-0.06,2.12-0.12,3-0.15c10.1-0.35,19.87-2.23,29.07-6.57
		c2.88-1.36,5.69-2.87,7.73-5.46c1.79-2.27,1.41-4.63-0.99-6.24c-1.26-0.85-2.66-1.39-4.08-1.91c-6.18-2.28-12.62-2.49-19.08-2.42
		c-4.44,0.05-8.85,0.55-13.22,1.4c-6.48,1.26-12.82,2.93-18.66,6.13c-2.36,1.3-4.6,2.79-6.05,5.15c-1.35,2.19-0.98,3.9,1.1,5.44
		c1.67,1.24,3.54,2.05,5.52,2.65C303.99,50.09,309.37,50.38,314.42,50.5z"/>
</g>
<g>
	<path fill="#547384" d="M308.43,35.95c-5.7-0.09-12.75-0.52-19.52-2.89c-2.86-1-5.61-2.24-7.79-4.43c-3.8-3.8-3.93-9.04-0.36-13.07
		c2.2-2.48,4.86-4.35,7.73-5.93c5.54-3.04,11.47-5.07,17.6-6.54c9.57-2.3,19.29-3.39,29.13-3.02c5.78,0.21,11.54,0.81,17.04,2.75
		c2.81,0.99,5.49,2.3,7.66,4.42c3.92,3.81,4.1,8.89,0.48,13.01c-2.75,3.13-6.13,5.42-9.85,7.24c-8.29,4.07-17.16,6.06-26.21,7.43
		C319.52,35.64,314.68,35.84,308.43,35.95z M330.49,4.54c-9.56,0.05-18.93,1.48-28.08,4.22c-5.68,1.7-11.15,3.88-15.85,7.64
		c-1.22,0.98-2.27,2.11-3.03,3.48c-1.26,2.27-1.06,3.72,0.79,5.51c2.24,2.17,5.1,3.15,8.01,3.97c6.06,1.7,12.28,2.14,18.53,2.08
		c7.26-0.08,14.45-0.88,21.53-2.53c6.09-1.42,12.05-3.28,17.55-6.32c2.81-1.56,5.65-3.15,7.49-5.96c1.63-2.49,1.15-5.12-1.3-6.79
		c-1.42-0.97-2.97-1.68-4.61-2.25C344.7,5.17,337.66,4.45,330.49,4.54z"/>
</g>
<g>
	<path d="M304,112.76c0.11,1.88,0.14,3.77-0.07,5.65c-0.04,0.32-0.18,0.74,0.12,0.95c0.38,0.27,0.7-0.12,1-0.31
		c4.07-2.65,7.49-6.04,10.71-9.63c9.81-10.95,17.61-23.28,24.55-36.18c6.14-11.41,11.48-23.18,15.37-35.57
		c1.07-3.39,2.04-6.82,2.65-10.33c0.36-2.09,0.17-4.12-0.25-6.21c-0.84-4.17-2.22-8.26-2.21-12.58c0-2.42,1.19-4.14,3.26-5.26
		c1.96-1.06,3.94-0.42,5.03,1.53c0.58,1.06,0.7,2.22,0.75,3.4c0.22,5.49-0.71,10.77-2.14,16.08c-1.57,5.8-2.72,11.72-4.63,17.45
		c-5.74,17.13-13.81,33.13-23.46,48.35c-5.55,8.75-11.62,17.11-18.82,24.59c-3.64,3.78-7.68,7.09-11.88,10.22
		c-0.74,0.55-1.5,1.09-2.43,1.28c-0.99,0.2-1.95,0.07-2.64-0.76c-0.6-0.72-0.58-1.58-0.16-2.36c1.32-2.48,1.62-5.18,1.73-7.9
		c0.29-6.89-0.57-13.71-1.63-20.49c-1.33-8.44-3.1-16.79-5.32-25.04c-3.24-12.06-6.96-23.96-12.44-35.23
		c-1.76-3.62-3.73-7.12-6.73-9.92c-0.7-0.65-1.24-0.91-2.17-0.31c-1.3,0.84-2.84,0.4-3.47-0.81c-0.62-1.18-0.09-2.71,1.25-3.4
		c1.37-0.7,2.85-0.77,4.26-0.18c1.47,0.61,2.77,1.47,3.8,2.78c4.48,5.65,7.35,12.16,10.05,18.75c5.12,12.51,8.79,25.47,11.71,38.65
		c2.07,9.33,3.55,18.75,4.2,28.28C304.08,109.74,304,111.25,304,112.76z"/>
</g>
<g>
	<path fill="none" stroke="#000000" stroke-width="2" stroke-linecap="round" stroke-linejoin="round" stroke-miterlimit="10" d="
		M243.46,116.24c-0.17,0.59-0.34,1.17-0.5,1.76"/>
	<path fill="none" stroke="#000000" stroke-width="2" stroke-linecap="round" stroke-linejoin="round" stroke-miterlimit="10" d="
		M86.43,99.65c-1.14,0.44-2.39,0.45-3.52,0.99c-3.5,1.69-5.69,4.34-6.54,8.18c-1.33,5.98,3.15,11.85,8.3,12.99
		c4.41,0.98,8.05-0.11,11.19-3.19c2.24-2.2,3.21-4.99,3.11-8.03c-0.19-5.61-4.43-10.03-9.63-10.71c-0.93-0.12-1.84-0.21-2.77-0.22"
		/>
	<path fill="none" stroke="#000000" stroke-width="2" stroke-linecap="round" stroke-linejoin="round" stroke-miterlimit="10" d="
		M193.09,110.46c-0.67,0.17-1.35,0.3-2.01,0.51c-1.88,0.59-3.69,1.36-4.89,3.02c-2.14,2.97-0.71,6.77,2.88,7.78
		c3.66,1.04,7.05,0.22,10.3-1.52c1.38-0.74,2.5-1.86,3.78-2.75c0.55-0.39,0.66-0.88,0.64-1.51c-0.04-1.09-0.01-2.18-0.01-3.27
		c0-1.28-0.29-1.5-1.5-1.78c-2.37-0.55-4.77-0.49-7.17-0.48c-0.63,0-1.26,0-1.88,0"/>
	<path fill="none" stroke="#000000" stroke-width="2" stroke-linecap="round" stroke-linejoin="round" stroke-miterlimit="10" d="
		M268.34,99.65c-1.33,0.44-2.74,0.51-4.04,1.23c-4.05,2.24-6.21,5.44-6.32,10.2c-0.11,4.9,3.77,9.35,7.72,10.55
		c5.72,1.74,11.22-0.53,13.91-5.79c1.99-3.89,1.36-9.24-1.84-12.43c-1.55-1.54-3.22-2.78-5.4-3.28c-1.3-0.3-2.58-0.51-3.9-0.48"/>
	<path fill="none" stroke="#000000" stroke-width="2" stroke-linecap="round" stroke-linejoin="round" stroke-miterlimit="10" d="
		M27.38,119.38c-1.97,0.97-3.99,1.86-6.16,2.24c-2.28,0.39-4.54,0.95-6.91,0.43c-2.29-0.51-4.67-2.25-4.56-5.18
		c0.17-4.89,0.06-9.8,0.04-14.7c-0.01-1.36,0.15-1.53,1.52-1.52c3.81,0.03,7.62,0.01,11.43,0c0.38,0,0.77-0.03,1.13-0.13
		c0.66-0.19,1.09-0.65,0.99-1.37c-0.11-0.84-0.71-1.02-1.49-1.02c-3.48,0.03-6.95,0.01-10.43,0.01c-0.67,0-1.34-0.03-2.01,0.01
		c-0.83,0.04-1.15-0.31-1.14-1.14c0.03-1.97,0-3.94,0.01-5.9c0-0.54-0.05-1.05-0.38-1.51c-0.32-0.46-0.77-0.62-1.26-0.48
		c-0.57,0.17-0.9,0.57-0.89,1.24c0.03,2.05,0.02,4.1,0.01,6.16c-0.01,1.38-0.25,1.62-1.63,1.63c-1,0.01-2.01,0.02-3.01,0
		C1.8,98.12,1.07,98.22,1,99.28c-0.05,0.75,0.62,1.34,1.63,1.37c1.05,0.04,2.09,0.03,3.14,0c1.36-0.04,1.52,0.15,1.52,1.51
		c-0.02,4.94-0.01,9.88-0.01,14.82c0,3.69,2.27,6.51,5.91,7.28c4.05,0.86,7.97,0.2,11.8-1.14c0.9-0.31,1.79-0.7,2.63-1.14
		c0.56-0.29,1.06-0.72,1.02-1.49c-0.04-0.74-0.56-0.95-1.14-1.13"/>
	<path fill="none" stroke="#000000" stroke-width="2" stroke-linecap="round" stroke-linejoin="round" stroke-miterlimit="10" d="
		M120.72,104.68c0.52-0.66,0.63-1.31,0.28-2.15c-0.41-0.98-0.15-2.08-0.14-3.13c0.01-0.94-0.33-1.29-1.28-1.27
		c-1.93,0.05-3.85,0.02-5.78,0.01c-0.79,0-1.51,0.08-1.51,1.13c0,0.77,0.6,1.35,1.51,1.37c1,0.03,2.01,0.02,3.01,0
		c0.52-0.01,1.03,0,1.57,0.31c0,6.64,0,13.34,0,20.08c-1.93,0.42-3.83,0.12-5.72,0.2c-0.5,0.02-0.97-0.02-1.39,0.37
		c-0.76,0.71-0.7,1.41,0.26,1.88c0.42,0.21,0.89,0.27,1.38,0.27c6.2-0.02,12.4-0.01,18.59-0.01c0.25,0,0.53,0.07,0.75-0.01
		c0.64-0.26,1.48-0.44,1.37-1.37c-0.11-0.87-0.74-1.15-1.61-1.15c-3.14,0.03-6.28,0.02-9.42,0.01c-1.57,0-1.76-0.18-1.76-1.76
		c0-3.6-0.01-7.2,0.01-10.8c0-0.38-0.14-0.78,0.23-1.14c2.55-2.49,5.18-4.95,8.33-6.59c3.2-1.67,4.33-1.62,6.86,0.96
		c0.38,0.39,0.76,0.49,1.27,0.51c0.6,0.02,0.9-0.4,1.1-0.79c0.16-0.31,0.08-0.77-0.21-1.12c-1.4-1.66-3.11-2.86-5.28-3.11
		c-1.74-0.2-3.38,0.45-4.88,1.25c-1.75,0.93-3.33,2.14-4.79,3.49c-0.61,0.56-1.28,1.02-2.13,1.13"/>
	<path fill="none" stroke="#000000" stroke-width="2" stroke-linecap="round" stroke-linejoin="round" stroke-miterlimit="10" d="
		M42.21,103.93c0.53-1.96,1.61-3.5,3.39-4.53c1.62-0.93,3.22-1.75,5.14-2.06c2.99-0.48,5.67,0.04,8.03,1.84
		c2.06,1.57,3.26,3.72,3.28,6.38c0.03,4.73,0.02,9.46,0,14.2c-0.01,1.36,0.15,1.57,1.52,1.51c0.42-0.02,0.84,0,1.26,0
		c1.09,0.01,1.84,0.5,1.74,1.25c-0.13,0.96-0.91,1.22-1.74,1.25c-1.09,0.04-2.18,0.01-3.27,0.01c-1.55,0-3.1,0.01-4.65,0
		c-0.97-0.01-1.85-0.67-1.74-1.37c0.14-0.97,0.85-1.15,1.74-1.15c2.64,0.02,2.64,0,2.64-2.62c0-4.19-0.04-8.38,0.01-12.56
		c0.04-3.33-2.25-5.51-5.16-6.17c-4.27-0.96-7.24,1.02-9.97,3.99c-1.18,1.28-1.53,2.54-1.49,4.19c0.09,3.81,0.03,7.62,0.03,11.43
		c0,1.57,0.18,1.75,1.76,1.76c0.5,0,1.01,0.03,1.51-0.01c0.67-0.04,1.09,0.32,1.24,0.89c0.16,0.61-0.14,1.13-0.74,1.37
		c-0.39,0.16-0.79,0.29-1.25,0.28c-2.51-0.04-5.02-0.02-7.54-0.01c-0.47,0-0.86-0.09-1.27-0.36c-0.55-0.38-0.59-0.9-0.46-1.39
		c0.12-0.49,0.54-0.77,1.1-0.76c0.71,0.01,1.42-0.01,2.14,0.01c0.71,0.02,1.02-0.3,1.01-1.01c-0.02-1.05,0-2.09,0-3.14
		c0-8.79,0-17.59,0-26.38c0-1.63,0-1.63-1.63-1.63c-0.67,0-1.34,0-2.01,0c-0.84,0-1.22-0.59-1.22-1.26c0-0.67,0.38-1.26,1.22-1.26
		c1.76,0,3.52,0,5.28,0c0.87,0,0.88,0.62,0.88,1.25c-0.01,3.31-0.01,6.62,0,9.92c0.01,1.03-0.22,2.1,0.5,3.02"/>
	<path fill="none" stroke="#000000" stroke-width="2" stroke-linecap="round" stroke-linejoin="round" stroke-miterlimit="10" d="
		M204.27,119c-1.06,1.23-0.57,2.65-0.5,4.02c0.02,0.44,0.31,0.74,0.75,0.75c1.76,0.02,3.52,0.06,5.28-0.01
		c0.96-0.04,1.62-0.78,1.5-1.49c-0.16-0.92-0.83-1.06-1.63-1.01c-0.63,0.04-1.26-0.01-1.88,0.01c-1.36,0.05-1.52-0.15-1.52-1.51
		c0.02-4.69-0.15-9.39,0.06-14.07c0.18-4.23-2.81-7.03-6.2-8.04c-2.7-0.81-5.37-0.51-8.04,0.13c-1.73,0.42-3.44,0.92-5.15,1.37
		c-0.72,0.19-1.17,0.61-1.26,1.38c-0.07,0.6,0.39,0.91,0.78,1.09c0.28,0.13,0.72,0.06,1.12-0.06c2.99-0.92,5.99-1.96,9.16-1.87
		c2.04,0.06,4.08,0.41,5.66,1.97c0.96,0.95,1.43,2.05,1.38,3.4c-0.03,0.84,0.05,1.68-0.02,2.51c-0.05,0.6-0.15,1.07-1.12,0.92
		c-2.99-0.45-6.01-0.77-9.04-0.53c-3.69,0.3-7.11,1.34-9.41,4.51c-2.98,4.11-1.23,8.99,2.62,11.05c2.02,1.08,4.21,1.22,6.41,1.11
		c3.22-0.17,6.15-1.29,8.79-3.13c0.4-0.28,0.77-0.5,1.27-0.49"/>
	<path fill="none" stroke="#000000" stroke-width="2" stroke-linecap="round" stroke-linejoin="round" stroke-miterlimit="10" d="
		M243.46,105.43c-0.04-0.08-0.11-0.17-0.12-0.25c-0.19-2.6-2.12-3.99-3.92-5.37c-1.75-1.34-3.76-2.09-6-2.46
		c-6.16-1.02-12.01,3.34-13.85,8.33c-0.83,2.26-1.29,4.58-0.94,6.91c0.67,4.48,2.77,8.1,6.85,10.45c4.56,2.62,11.36,1.93,14.86-1.75
		c0.45-0.47,0.99-0.94,1.71-1.22c0.59-0.23,0.56-1.18,0.78-1.82"/>
	<path fill="none" stroke="#000000" stroke-width="2" stroke-linecap="round" stroke-linejoin="round" stroke-miterlimit="10" d="
		M268.09,97.14c-0.67,0.53-1.52,0.28-2.27,0.45c-4.81,1.08-9.28,6.05-10.08,10.6c-1.24,7.06,2.3,12.76,7.96,15.31
		c4.83,2.18,11.09,1.36,15.07-2.49c1.83-1.77,3.27-3.75,3.91-6.28c1.2-4.78,0.43-9.07-2.9-12.82c-1.98-2.23-4.36-3.78-7.29-4.39
		c-1.4-0.29-2.83-0.49-4.27-0.38"/>
	<path fill="none" stroke="#000000" stroke-width="2" stroke-linecap="round" stroke-linejoin="round" stroke-miterlimit="10" d="
		M230.9,99.65c-1.24,0.48-2.55,0.57-3.79,1.2c-3.36,1.7-5.43,4.46-5.92,7.98c-0.84,5.97,1.57,11.13,8.23,13.1
		c3.24,0.96,6.49,0.08,9.14-2.2c1.79-1.54,3.06-3.39,3.69-5.76c1-3.78,0.28-7.17-2.08-10.16c-1.4-1.77-3.13-3.18-5.49-3.71
		c-1.22-0.27-2.41-0.48-3.65-0.46"/>
	<path fill="none" stroke="#000000" stroke-width="2" stroke-linecap="round" stroke-linejoin="round" stroke-miterlimit="10" d="
		M242.33,120.26c0.45,0.75,0.41,1.57,0.37,2.39c-0.04,0.83,0.31,1.16,1.14,1.14c1.55-0.03,3.1,0.01,4.65-0.02
		c0.9-0.02,1.72-0.7,1.62-1.37c-0.13-0.88-0.75-1.14-1.61-1.15c-1.05-0.02-2.37,0.49-3.07-0.3c-0.6-0.68-0.19-1.95-0.19-2.95
		c-0.01-9.92-0.01-19.85-0.01-29.77c0-1.63,0-1.63-1.63-1.63c-1.47,0-2.93,0.02-4.4-0.01c-0.83-0.01-1.44,0.18-1.51,1.14
		c-0.05,0.75,0.58,1.34,1.51,1.38c0.84,0.03,1.68,0.02,2.51,0c0.71-0.02,1.01,0.3,1.01,1.01c-0.01,3.43-0.01,6.87,0,10.3
		c0,0.53-0.26,0.95-0.51,1.38"/>
	<path fill="none" stroke="#000000" stroke-width="2" stroke-linecap="round" stroke-linejoin="round" stroke-miterlimit="10" d="
		M86.43,97.14c-1.33,0.37-2.73,0.43-4.02,1c-4.75,2.11-7.72,5.56-8.56,10.81c-0.71,4.38,0.57,8.13,3.46,11.27
		c2.33,2.54,5.25,4.18,8.88,4.33c2.35,0.1,4.57-0.04,6.8-0.99c3.81-1.64,6.42-4.35,7.75-8.21c2.7-7.81-2.27-16.18-9.9-17.73
		c-1.42-0.29-2.83-0.53-4.28-0.48"/>
	<path fill="none" stroke="#000000" stroke-width="2" stroke-linecap="round" stroke-linejoin="round" stroke-miterlimit="10" d="
		M152.76,100.79c0.68-0.3,1.3-0.63,1.91-1.1c2.54-1.94,5.33-2.82,8.65-2.35c4.02,0.58,6.43,2.78,7.62,6.47
		c0.31,0.97,0.27,2.08,0.27,3.13c0.03,4.23,0.01,8.46,0.01,12.69c0,0.46,0.04,0.92,0.06,1.34c0.74,0.41,1.48,0.29,2.2,0.29
		c0.67,0,1.23,0.16,1.37,0.89c0.16,0.79-0.24,1.29-1,1.5c-0.32,0.09-0.67,0.13-1,0.13c-1.93,0.01-3.85,0.01-5.78,0
		c-0.43,0-0.84-0.01-1.27-0.23c-0.61-0.32-0.86-0.77-0.73-1.4c0.13-0.65,0.61-0.88,1.25-0.89c0.76-0.01,1.54,0.14,2.23-0.24
		c0.06-0.18,0.16-0.35,0.15-0.51c-0.06-5.28,0.2-10.56-0.14-15.83c-0.13-2.08-2.76-4.4-4.88-4.8c-4.43-0.83-7.48,1.12-10.26,4.35
		c-1.06,1.24-1.18,2.36-1.18,3.71c0,3.98,0.02,7.96-0.01,11.93c-0.01,1.17,0.23,1.46,1.39,1.39c0.46-0.03,0.92,0.03,1.38-0.01
		c0.91-0.09,1.49,0.36,1.74,1.15c0.19,0.6-0.78,1.34-1.74,1.37c-1.13,0.03-2.26,0.01-3.39,0.01c-1.42,0-2.85,0-4.27,0
		c-0.29,0-0.63,0.09-0.87-0.02c-0.59-0.28-1.42-0.52-1.23-1.35c0.16-0.71,0.69-1.17,1.6-1.16c2.89,0.01,2.89-0.03,2.89-2.87
		c0-5.4-0.01-10.8,0.01-16.21c0.01-1.35-0.14-1.59-1.52-1.5c-0.63,0.04-1.24-0.05-1.75-0.4c-0.41-0.28-0.64-0.75-0.5-1.24
		c0.15-0.51,0.49-0.89,1.11-0.89c1.42,0.01,2.85,0.01,4.27,0c0.46,0,0.84,0.23,0.86,0.63c0.06,1.26,0.7,2.56-0.22,3.78
		c-0.24,0.32-0.35,0.75-0.51,1.12"/>
</g>
<g>
	<path d="M242.56,103.05c0-1.38,0-2.36,0-3.35c0-3.14-0.05-6.28,0.03-9.42c0.03-1.08-0.34-1.39-1.35-1.29
		c-0.75,0.07-1.51,0.01-2.26-0.01c-0.74-0.02-1.34-0.3-1.39-1.13c-0.06-0.85,0.52-1.25,1.25-1.27c1.88-0.07,3.76-0.05,5.65-0.07
		c0.44,0,0.59,0.22,0.58,0.62c-0.01,0.33,0,0.67,0,1c0,10.59,0.01,21.18-0.02,31.77c0,0.94,0.18,1.38,1.22,1.27
		c0.78-0.09,1.59-0.03,2.38,0.02c0.73,0.04,1.35,0.35,1.36,1.18c0.01,0.82-0.56,1.21-1.3,1.23c-1.84,0.04-3.68,0.01-5.52,0.04
		c-0.65,0.01-0.62-0.39-0.62-0.83c0-1.24,0-2.47,0-4.12c-3.19,4.09-6.99,6.22-11.89,5.86c-3.35-0.25-6.22-1.63-8.49-4.11
		c-5.01-5.47-4.97-13.93,0.14-19.27c2.82-2.94,6.33-4.26,10.43-3.95C236.81,97.54,239.82,99.71,242.56,103.05z M220.94,110.89
		c-0.01,6.22,4.78,11.23,10.75,11.25c5.94,0.02,10.77-4.95,10.86-11.18c0.09-6.18-4.85-11.32-10.85-11.29
		C225.68,99.7,220.94,104.63,220.94,110.89z"/>
	<path d="M42.8,101.77c2.13-2.14,4.16-3.76,6.86-4.36c5.22-1.15,9.89,1.03,11.64,5.48c0.45,1.15,0.59,2.35,0.59,3.57
		c0,4.48,0.04,8.96-0.03,13.44c-0.02,1.08,0.32,1.4,1.34,1.28c0.58-0.07,1.17-0.03,1.75,0.02c0.73,0.07,1.31,0.35,1.29,1.22
		c-0.03,0.94-0.68,1.19-1.45,1.2c-2.34,0.03-4.69,0.02-7.03,0.02c-0.5,0-1.01,0.02-1.51-0.03c-0.74-0.07-1.32-0.39-1.32-1.22
		c0-0.85,0.62-1.14,1.34-1.2c0.79-0.06,1.59-0.05,2.38-0.03c0.54,0.01,0.74-0.2,0.73-0.74c-0.02-4.94,0.12-9.88-0.09-14.82
		c-0.16-3.9-3.38-6.19-7.66-5.98c-2.55,0.13-4.44,1.38-6.28,3.02c-1.9,1.71-2.81,3.54-2.62,6.19c0.26,3.67,0.11,7.36,0.04,11.05
		c-0.02,1.08,0.32,1.41,1.34,1.28c0.49-0.07,1-0.03,1.51,0c0.8,0.05,1.57,0.21,1.57,1.22c0,1-0.74,1.22-1.56,1.24
		c-1.67,0.02-3.35,0.01-5.02,0.01c-1.09,0-2.18,0.01-3.26-0.02c-0.79-0.02-1.45-0.33-1.46-1.21c-0.01-0.9,0.68-1.16,1.45-1.24
		c0.08-0.01,0.17-0.01,0.25-0.01c0.87-0.07,2.02,0.38,2.53-0.19c0.6-0.66,0.2-1.84,0.2-2.78c0.02-9.29-0.01-18.59,0.03-27.88
		c0-1.04-0.25-1.43-1.32-1.32c-0.83,0.08-1.67,0.02-2.51-0.03c-0.66-0.04-1.11-0.4-1.18-1.08c-0.07-0.69,0.32-1.15,0.98-1.24
		c2-0.28,4.01-0.12,6.02-0.09c0.71,0.01,0.45,0.7,0.45,1.1c0.02,4.14,0.01,8.29,0.01,12.43C42.8,100.52,42.8,100.97,42.8,101.77z"/>
	<path d="M203.61,120.14c-0.91,0.63-1.6,1.14-2.33,1.61c-3.87,2.45-8.01,3.55-12.56,2.44c-3.24-0.8-5.45-2.76-6.05-6.12
		c-0.6-3.33,0.86-5.88,3.53-7.76c3.53-2.49,7.58-2.63,11.68-2.37c1.58,0.1,3.15,0.38,4.72,0.64c0.76,0.13,1.11-0.04,1.02-0.87
		c-0.05-0.54-0.01-1.09-0.01-1.63c0-3.87-1.98-5.97-5.89-6.33c-3.16-0.29-6.14,0.48-9.12,1.36c-0.52,0.15-1.04,0.32-1.57,0.43
		c-0.65,0.14-1.2-0.07-1.41-0.72c-0.23-0.69,0.03-1.23,0.72-1.52c1.59-0.67,3.26-1.04,4.93-1.44c3.38-0.8,6.79-1.19,10.08,0.33
		c3.03,1.39,4.77,3.72,4.77,7.17c0,4.9,0.02,9.8-0.02,14.69c-0.01,0.86,0.2,1.21,1.1,1.13c0.83-0.07,1.67-0.03,2.51,0.02
		c0.73,0.04,1.34,0.36,1.35,1.19c0.01,0.82-0.57,1.2-1.32,1.22c-1.84,0.04-3.68,0.01-5.52,0.04c-0.54,0.01-0.61-0.28-0.61-0.71
		C203.62,122.08,203.61,121.22,203.61,120.14z M203.61,114.44c0-0.84-0.06-1.35,0.01-1.84c0.16-1.06-0.27-1.52-1.31-1.64
		c-1.29-0.14-2.56-0.47-3.85-0.55c-3.7-0.24-7.38-0.2-10.67,1.93c-1.95,1.26-3.08,2.96-2.71,5.36c0.31,2.07,2.11,3.74,4.48,4.19
		c4.41,0.83,8.23-0.5,11.74-3.15C202.89,117.55,204.27,116.36,203.61,114.44z"/>
	<path d="M152.2,101.72c1-0.86,1.72-1.5,2.46-2.1c2.87-2.33,6.15-2.92,9.69-2.14c4.17,0.93,6.83,4.31,6.85,8.58
		c0.01,4.65,0.03,9.29-0.02,13.94c-0.01,0.95,0.25,1.29,1.19,1.16c0.41-0.06,0.84-0.02,1.25,0.03c0.74,0.08,1.33,0.42,1.29,1.25
		c-0.03,0.81-0.63,1.15-1.37,1.17c-1.3,0.04-2.59,0.03-3.89,0.03c-1.09,0-2.18,0.01-3.26-0.03c-0.73-0.03-1.35-0.34-1.39-1.16
		c-0.04-0.91,0.63-1.18,1.4-1.28c0.04-0.01,0.08-0.01,0.13-0.01c2.2-0.2,2.2-0.2,2.2-2.39c0-3.89-0.06-7.79,0.02-11.68
		c0.06-2.76-0.63-5.14-3.18-6.48c-2.73-1.44-5.59-1.37-8.29,0.13c-1.97,1.09-3.34,2.89-4.81,4.55c-0.28,0.31-0.26,0.69-0.26,1.07
		c0,4.56,0.02,9.13-0.02,13.69c-0.01,0.9,0.29,1.18,1.15,1.11c0.66-0.06,1.34-0.03,2.01,0.03c0.72,0.06,1.32,0.36,1.31,1.22
		c-0.02,0.85-0.61,1.17-1.34,1.19c-1.72,0.04-3.43,0.03-5.15,0.03c-1.09,0-2.18,0.02-3.26-0.01c-0.81-0.02-1.55-0.23-1.55-1.24
		c0-1.02,0.79-1.16,1.57-1.22c0.33-0.03,0.67-0.01,1-0.01c2.06-0.04,1.82,0.36,1.83-1.89c0.01-5.82-0.02-11.64,0.03-17.45
		c0.01-1.06-0.3-1.42-1.34-1.3c-0.49,0.06-1.01,0.02-1.5-0.09c-0.59-0.13-0.91-0.55-0.9-1.19c0.01-0.59,0.33-0.99,0.87-1.08
		c1.62-0.27,3.25-0.11,4.88-0.1c0.51,0,0.39,0.46,0.4,0.77C152.21,99.69,152.2,100.56,152.2,101.72z"/>
	<path d="M87.41,97.16c7.69-0.01,13.86,6.08,13.88,13.71c0.03,7.57-6.18,13.74-13.84,13.76c-7.73,0.02-13.96-6.14-13.94-13.78
		C73.53,103.24,79.7,97.17,87.41,97.16z M87.43,122.15c6.3-0.02,11.39-5.08,11.36-11.29c-0.03-6.26-5.1-11.21-11.44-11.18
		c-6.36,0.03-11.36,4.99-11.35,11.27C76,117.15,81.11,122.16,87.43,122.15z"/>
	<path d="M269.3,97.16c7.69-0.02,13.86,6.06,13.9,13.69c0.04,7.56-6.17,13.75-13.83,13.77c-7.73,0.02-13.97-6.13-13.95-13.77
		C255.43,103.25,261.59,97.18,269.3,97.16z M269.25,99.67c-6.36,0.03-11.35,5-11.34,11.27c0.01,6.21,5.12,11.22,11.44,11.2
		c6.3-0.02,11.39-5.09,11.35-11.3C280.65,104.58,275.59,99.64,269.25,99.67z"/>
	<path d="M7.17,109.34c0-2.6-0.03-5.19,0.02-7.79c0.02-0.84-0.25-1.08-1.06-1.04c-1.21,0.06-2.43,0.02-3.64,0
		c-0.85-0.01-1.54-0.33-1.52-1.29c0.02-0.88,0.72-1.16,1.5-1.18c0.92-0.03,1.84-0.02,2.76-0.02c1.94,0,1.94,0,1.94-2
		c0-1.72-0.01-3.43,0-5.15c0.01-0.89,0.15-1.81,1.27-1.79c1.12,0.02,1.22,0.95,1.22,1.83c0,2.01,0.05,4.02-0.02,6.03
		c-0.03,0.91,0.28,1.11,1.13,1.1c3.85-0.04,7.7-0.02,11.55-0.02c0.38,0,0.76-0.01,1.13,0.03c0.73,0.08,1.3,0.38,1.3,1.23
		c0,0.86-0.58,1.19-1.31,1.21c-1.55,0.05-3.1,0.03-4.65,0.03c-2.68,0-5.36,0.04-8.04-0.02c-0.88-0.02-1.13,0.23-1.12,1.11
		c0.04,4.98,0.01,9.96,0.02,14.95c0.01,2.91,1.57,4.83,4.47,5.31c4.19,0.7,8.13-0.31,11.94-1.99c0.34-0.15,0.66-0.37,1.02-0.48
		c0.54-0.17,1.01-0.01,1.31,0.48c0.28,0.47,0.28,0.98-0.13,1.39c-0.26,0.26-0.56,0.53-0.89,0.68c-4.52,2.13-9.2,3.35-14.22,2.21
		c-3.89-0.88-5.98-3.54-6-7.55C7.15,114.2,7.17,111.77,7.17,109.34z"/>
	<path d="M120.85,104.26c2.01-1.68,3.65-3.17,5.47-4.45c1.13-0.8,2.32-1.48,3.65-1.93c3.06-1.02,5.97-0.21,8.06,2.23
		c0.5,0.59,0.85,1.22,0.22,1.89c-0.65,0.68-1.31,0.48-1.98-0.09c-2.88-2.47-4.23-2.62-7.51-0.68c-2.75,1.63-5.05,3.85-7.47,5.91
		c-0.36,0.31-0.43,0.68-0.43,1.12c0.01,3.98,0.02,7.95-0.01,11.93c-0.01,0.79,0.28,0.98,1.02,0.97c3.06-0.04,6.11-0.02,9.17-0.01
		c0.38,0,0.76-0.01,1.13,0.03c0.72,0.08,1.34,0.35,1.35,1.2c0,0.83-0.58,1.14-1.32,1.23c-0.29,0.03-0.59,0.03-0.88,0.03
		c-6.11,0-12.22,0.01-18.34,0c-0.94,0-2.2,0.16-2.2-1.2c0.01-1.39,1.32-1.14,2.23-1.17c1.46-0.05,2.93-0.05,4.39,0
		c0.77,0.02,1.01-0.27,1-1.02c-0.02-6.24-0.02-12.47,0-18.71c0-0.75-0.19-1.05-0.98-1.01c-1.21,0.06-2.43,0.02-3.64,0.01
		c-0.81-0.01-1.56-0.2-1.59-1.2c-0.04-1.01,0.69-1.27,1.51-1.28c2.13-0.03,4.27,0.01,6.4-0.03c0.78-0.02,0.76,0.44,0.76,0.97
		C120.85,100.64,120.85,102.29,120.85,104.26z"/>
</g>
</svg>
